<svg version="1.1" xmlns="http://www.w3.org/2000/svg" xmlns:xlink="http://www.w3.org/1999/xlink" width="123.73095" height="39.17693" viewBox="0,0,123.73095,39.17693"><g transform="translate(-259.70924,-163.46563)"><g data-paper-data="{&quot;isPaintingLayer&quot;:true}" fill-rule="evenodd" stroke-width="1.5" stroke-linecap="butt" stroke-linejoin="miter" stroke-miterlimit="22.9256" stroke-dasharray="" stroke-dashoffset="0" style="mix-blend-mode: normal"><path d="M274.43424,201.89257c-5.97881,0 -10.8256,-4.71128 -10.8256,-10.52293v-10.52293c0,-5.81166 4.84679,-10.52293 10.8256,-10.52293h97.43035c5.97881,0 10.8256,4.71128 10.8256,10.52293v10.52293c0,5.81166 -4.84679,10.52293 -10.8256,10.52293z" fill-opacity="0.31765" fill="#590b0b" stroke-opacity="0.45882" stroke="#1c0303"/><path d="M271.28483,195.78443c-5.97881,0 -10.82559,-4.71128 -10.82559,-10.52293v-10.52293c0,-5.81165 4.84678,-10.52293 10.82559,-10.52293h97.43035c5.97881,0 10.82559,4.71128 10.82559,10.52293v10.52293c0,5.81165 -4.84678,10.52293 -10.82559,10.52293z" fill="#951212" stroke="#ffffff"/></g></g></svg>