<svg version="1.1" xmlns="http://www.w3.org/2000/svg" xmlns:xlink="http://www.w3.org/1999/xlink" width="116.43643" height="133.99174" viewBox="0,0,116.43643,133.99174"><g transform="translate(-265.7393,-113.00415)"><g data-paper-data="{&quot;isPaintingLayer&quot;:true}" fill-rule="nonzero" stroke="none" stroke-width="1" stroke-linecap="butt" stroke-linejoin="miter" stroke-miterlimit="10" stroke-dasharray="" stroke-dashoffset="0" style="mix-blend-mode: normal"><path d="M311.24524,246.99588c-3.86599,0 -7,-3.13401 -7,-7v-3.2c0,-1.38071 -1.11929,-2.5 -2.5,-2.5h-3.38c-0.76,0 -1.51,0 -2.26,0h-0.17c-0.52757,0.05065 -1.0385,-0.20095 -1.32,-0.65c-1.70667,-2.28666 -3.43,-4.57333 -5.17,-6.86c-3.35,-4.41 -6.82,-9 -10.1,-13.55c-0.77097,-1.07164 -0.89742,-2.47801 -0.33,-3.67c0.60034,-1.24798 1.84578,-2.05771 3.23,-2.1c2.28,-0.11 4.73,-0.16 7.94,-0.16h4h4.06h3.4c1.38071,0 2.5,-1.11929 2.5,-2.5v-6.36c0,-1.38071 -1.11929,-2.5 -2.5,-2.5h-6.26c-0.23,0 -0.44,0 -0.86,-0.57c-4.48,-6.01 -9.29,-12.43 -14.71,-19.61c-1.21,-1.61 -1.41,-3 -0.66,-4.53c0.52,-1.08 1.39,-2.19 4,-2.19h18.53c1.35732,-0.02168 2.44932,-1.12255 2.46,-2.48v-6.31c0,-1.38071 -1.11929,-2.5 -2.5,-2.5h-3.46c-0.8,0 -1.6,0 -2.4,0v0c-0.6,0 -0.79,-0.13 -1,-0.44c-1.6,-2.12667 -3.21,-4.25 -4.83,-6.37c-3.53,-4.65 -7.18,-9.45 -10.63,-14.26c-0.76563,-1.09366 -0.87699,-2.5168 -0.29078,-3.71623c0.5862,-1.19943 1.77749,-1.98593 3.11078,-2.05376c2.92,-0.15 5.81,-0.16 8,-0.16h11.61c1.38071,0 2.5,-1.11929 2.5,-2.5v-2.69c-0.23099,-3.44736 2.08783,-6.54761 5.46,-7.3c0.14661,-0.05939 0.29012,-0.12614 0.43,-0.2h40.78l0.44,0.16c0.49212,0.15691 0.97041,0.35426 1.43,0.59c2.38858,1.12856 3.89762,3.5485 3.86,6.19c0,0.67 0,1.34 0,2.08v1.19c0,1.38071 1.11929,2.5 2.5,2.5h11.87c2.22,0 4.45,0 6.68,0c1.38589,-0.07384 2.73452,0.46342 3.69,1.47c0.68662,0.89534 0.93613,2.05115 0.68,3.15c-0.18874,0.72966 -0.52952,1.41121 -1,2c-2.72,3.68 -5.47,7.34 -8.21,11l-6.42,8.65c-0.48,0.66 -0.76,0.66 -1,0.66h-6.18c-1.38071,0 -2.5,1.11929 -2.5,2.5v6.36c0,1.38071 1.11929,2.5 2.5,2.5h11.82c2.24,0 4.47334,0 6.7,0c1.34447,-0.06642 2.65128,0.45558 3.58,1.43c0.70266,0.8955 0.96689,2.05883 0.72,3.17c-0.12198,0.63199 -0.38144,1.22943 -0.76,1.75c-2.21333,2.98 -4.43666,5.95 -6.67,8.91c-2.51,3.36 -5.06,6.72 -7.51,10.11c-1,1.39 -1.81,1.67 -2.69,1.67h-0.54c-0.64005,-0.0809 -1.28491,-0.11766 -1.93,-0.11h-1.42h-1.29c-0.66386,-0.00267 -1.30129,0.25986 -1.77071,0.72929c-0.46942,0.46942 -0.73195,1.10686 -0.72929,1.77071v6.28c0,1.38071 1.11929,2.5 2.5,2.5h11.8c2.23,0 4.46,0 6.69,0c1.35518,-0.07807 2.67589,0.4451 3.61,1.43c0.69025,0.88588 0.94712,2.03448 0.7,3.13c-0.15427,0.72673 -0.46855,1.40996 -0.92,2c-2.9,3.93 -5.83,7.83 -8.76,11.74c-2,2.66666 -4,5.33334 -6,8c-0.45,0.6 -0.68,0.6 -0.88,0.6h-6.37c-1.38071,0 -2.5,1.11929 -2.5,2.5v3.14c0.03337,1.90885 -0.71437,3.74852 -2.06999,5.09282c-1.35563,1.34429 -3.2015,2.07657 -5.11001,2.02718z" fill-opacity="0.31765" fill="#580909"/><path d="M300.82652,244.465c-3.86599,0 -7,-3.13401 -7,-7v-3.2c0,-1.38071 -1.11929,-2.5 -2.5,-2.5h-3.38c-0.76,0 -1.51,0 -2.26,0h-0.17c-0.52757,0.05065 -1.0385,-0.20095 -1.32,-0.65c-1.70667,-2.28666 -3.43,-4.57333 -5.17,-6.86c-3.35,-4.41 -6.82,-9 -10.1,-13.55c-0.77097,-1.07164 -0.89742,-2.47801 -0.33,-3.67c0.60034,-1.24798 1.84578,-2.05771 3.23,-2.1c2.28,-0.11 4.73,-0.16 7.94,-0.16h4h4.06h3.4c1.38071,0 2.5,-1.11929 2.5,-2.5v-6.36c0,-1.38071 -1.11929,-2.5 -2.5,-2.5h-6.26c-0.23,0 -0.44,0 -0.86,-0.57c-4.48,-6.01 -9.29,-12.43 -14.71,-19.61c-1.21,-1.61 -1.41,-3 -0.66,-4.53c0.52,-1.08 1.39,-2.19 4,-2.19h18.53c1.35732,-0.02168 2.44932,-1.12255 2.46,-2.48v-6.31c0,-1.38071 -1.11929,-2.5 -2.5,-2.5h-3.46c-0.8,0 -1.6,0 -2.4,0v0c-0.6,0 -0.79,-0.13 -1,-0.44c-1.6,-2.12667 -3.21,-4.25 -4.83,-6.37c-3.53,-4.65 -7.18,-9.45 -10.63,-14.26c-0.76563,-1.09366 -0.87699,-2.5168 -0.29078,-3.71623c0.5862,-1.19943 1.77749,-1.98593 3.11078,-2.05376c2.92,-0.15 5.81,-0.16 8,-0.16h11.61c1.38071,0 2.5,-1.11929 2.5,-2.5v-2.69c-0.23099,-3.44736 2.08783,-6.54761 5.46,-7.3c0.14661,-0.05939 0.29012,-0.12614 0.43,-0.2h40.78l0.44,0.16c0.49212,0.15691 0.97041,0.35426 1.43,0.59c2.38858,1.12856 3.89762,3.5485 3.86,6.19c0,0.67 0,1.34 0,2.08v1.19c0,1.38071 1.11929,2.5 2.5,2.5h11.87c2.22,0 4.45,0 6.68,0c1.38589,-0.07384 2.73452,0.46342 3.69,1.47c0.68662,0.89534 0.93613,2.05115 0.68,3.15c-0.18874,0.72966 -0.52952,1.41121 -1,2c-2.72,3.68 -5.47,7.34 -8.21,11l-6.42,8.65c-0.48,0.66 -0.76,0.66 -1,0.66h-6.18c-1.38071,0 -2.5,1.11929 -2.5,2.5v6.36c0,1.38071 1.11929,2.5 2.5,2.5h11.82c2.24,0 4.47334,0 6.7,0c1.34447,-0.06642 2.65128,0.45558 3.58,1.43c0.70266,0.8955 0.96689,2.05883 0.72,3.17c-0.12198,0.63199 -0.38144,1.22943 -0.76,1.75c-2.21333,2.98 -4.43666,5.95 -6.67,8.91c-2.51,3.36 -5.06,6.72 -7.51,10.11c-1,1.39 -1.81,1.67 -2.69,1.67h-0.54c-0.64005,-0.0809 -1.28491,-0.11766 -1.93,-0.11h-1.42h-1.29c-0.66386,-0.00267 -1.30129,0.25986 -1.77071,0.72929c-0.46942,0.46942 -0.73195,1.10686 -0.72929,1.77071v6.28c0,1.38071 1.11929,2.5 2.5,2.5h11.8c2.23,0 4.46,0 6.69,0c1.35518,-0.07807 2.67589,0.4451 3.61,1.43c0.69025,0.88588 0.94712,2.03448 0.7,3.13c-0.15427,0.72673 -0.46855,1.40996 -0.92,2c-2.9,3.93 -5.83,7.83 -8.76,11.74c-2,2.66666 -4,5.33334 -6,8c-0.45,0.6 -0.68,0.6 -0.88,0.6h-6.37c-1.38071,0 -2.5,1.11929 -2.5,2.5v3.14c0.03337,1.90885 -0.71437,3.74852 -2.06999,5.09282c-1.35563,1.34429 -3.2015,2.07657 -5.11001,2.02718z" fill="#951212"/><path d="M301.52317,117.37414v0M340.06317,118.03414h-39.86l-0.2,0.06c-2.57,0.76 -3.67,2.23 -3.67,4.91v2.69c0,2.76142 -2.23857,5 -5,5h-11.6c-2.17,0 -5.02,0.01 -7.88,0.16c-0.4352,0.00064 -0.82831,0.2601 -1,0.66c-0.1979,0.37477 -0.16288,0.8299 0.09,1.17c3.44,4.77 7.08,9.57 10.6,14.2c1.47,1.94 2.94,3.87 4.4,5.81h1.85h3.47c2.76142,0 5,2.23857 5,5v6.31c0,2.76143 -2.23858,5 -5,5h-18.54c-1.37,0 -1.51,0.17 -1.74,0.7c-0.23,0.53 -0.41,0.91 0.41,2c5.33,7.05 10.03,13.3 14.39,19.18h5.44c2.76143,0 5,2.23857 5,5v6.22c0,2.76143 -2.23857,5 -5,5h-3.29h-4.09h-4c-3.17,0 -5.58,0.05 -7.82,0.15c-0.46816,0.00281 -0.89268,0.27544 -1.09,0.7c-0.19471,0.37806 -0.15177,0.83485 0.11,1.17c3.21,4.49 6.66,9.09 10,13.49c1.64,2.17 3.29,4.34 4.92,6.51c0.57,0 1.23,0 2,0h3.37c2.76143,0 5,2.23857 5,5v3.18c-0.01625,1.2046 0.45442,2.36476 1.30534,3.21756c0.85091,0.8528 2.01004,1.32603 3.21466,1.31244h38.2c1.2464,0.05065 2.45768,-0.4195 3.34352,-1.29776c0.88585,-0.87826 1.3664,-2.08545 1.32647,-3.33223v-3.13c0,-2.76143 2.23858,-5 5,-5h5.56c1.9,-2.54 3.79334,-5.07 5.68,-7.59c2.89,-3.85 5.87,-7.82 8.76,-11.74c0.21389,-0.2776 0.37335,-0.59314 0.47,-0.93c0.10122,-0.37628 0.04337,-0.77762 -0.16,-1.11c-0.47538,-0.40759 -1.09695,-0.60274 -1.72,-0.54c-1.97,0 -4.09,0 -6.68,0h-11.85c-2.76143,0 -5,-2.23857 -5,-5v-6.28c0,-2.76143 2.23858,-5 5,-5c0.41,0 0.81,0 1.22,0h1.49c0.74506,-0.00434 1.48971,0.03573 2.23,0.12c0.08467,0.02408 0.17201,0.03751 0.26,0.04h0.1c0.21625,-0.19875 0.41069,-0.42 0.58,-0.66c2.51,-3.38 5.06,-6.83 7.58,-10.13c2.19,-2.88 4.45,-5.88 6.65,-8.88c0.14161,-0.20593 0.24336,-0.43658 0.3,-0.68c0.10094,-0.38941 0.04341,-0.80294 -0.16,-1.15c-0.47008,-0.39583 -1.07749,-0.58991 -1.69,-0.54c-1.97,0 -4.1,0 -6.68,0h-11.82c-2.76142,0 -5,-2.23857 -5,-5v-6.32c0,-2.76143 2.23858,-5 5,-5h5.43c2.06667,-2.75333 4.13333,-5.51 6.2,-8.27c2.7,-3.61 5.49,-7.33 8.21,-11c0.22832,-0.30023 0.40104,-0.6389 0.51,-1c0.10201,-0.37724 0.05174,-0.77947 -0.14,-1.12c-0.50184,-0.41827 -1.14945,-0.61975 -1.8,-0.56c-2.22,0 -4.45,0 -6.67,0h-11.86c-2.76142,0 -5,-2.23857 -5,-5v-1.21c0,-0.76 0,-1.39 0,-2c0.05061,-1.76369 -0.97399,-3.3817 -2.59,-4.09c-0.34824,-0.16348 -0.70548,-0.30704 -1.07,-0.43v0M354.06317,191.03414v0M343.56317,114.07414c3.16372,1.55961 5.16509,4.78274 5.16,8.31c0,1.04 0,2.08 0,3.34h11.87c2.24,0 4.48,0 6.72,0c4.65,0.04 7.58,3.28 6.81,7.57c-0.24054,1.11085 -0.72185,2.15541 -1.41,3.06c-4.86,6.56 -9.8,13.07 -14.67,19.62c-0.65303,1.0284 -1.78186,1.65678 -3,1.67h-6.2v6.36h1.88l9.97,0.01c2.24,0 4.49,0 6.73,0c4.57,0.05 7.44,3.26 6.73,7.51c-0.17931,1.02414 -0.59348,1.9928 -1.21,2.83c-4.71,6.34 -9.53,12.63 -14.22,19c-1.00345,1.66656 -2.79492,2.69835 -4.74,2.73c-0.27,0 -0.55,-0.05 -0.85,-0.05c-0.53745,-0.06542 -1.07861,-0.09548 -1.62,-0.09c-0.89,0 -1.8,0.06 -2.71,0.06v6.27h11.81c2.24,0 4.49,0 6.73,0c4.58,0.04 7.47,3.23 6.76,7.47c-0.21738,1.11721 -0.68584,2.17041 -1.37,3.08c-4.89,6.61 -9.85,13.16 -14.76,19.75c-0.62684,0.97693 -1.69949,1.57701 -2.86,1.6h-6.39v3.15c0.05217,2.57854 -0.94849,5.06703 -2.77122,6.89165c-1.82273,1.82462 -4.31019,2.82784 -6.88878,2.77835h-38.19c-5.24118,0 -9.49,-4.24882 -9.49,-9.49v-3.22h-3.37c-0.73,0 -1.45,0 -2.17,0h-0.28c-1.31714,0.04812 -2.56822,-0.57742 -3.32,-1.66c-5.1,-6.81 -10.3,-13.53 -15.3,-20.44c-1.32929,-1.85199 -1.53106,-4.28538 -0.52498,-6.33102c1.00609,-2.04564 3.05664,-3.37129 5.33498,-3.44898c2.63,-0.16 5.3,-0.16 8,-0.16c2.7,0 5.4,0 8.11,0h3.36v-6.36h-6.27c-1.16002,-0.00591 -2.23748,-0.60115 -2.86,-1.58c-4.87333,-6.55334 -9.77,-13.08334 -14.69,-19.59c-1.72194,-1.9666 -2.08904,-4.77709 -0.93,-7.12c1.25,-2.59 3.45,-3.59 6.25,-3.59h18.59v-6.24h-3.47c-0.77,0 -1.55,0 -2.32,0h-0.15c-1.18147,0.06972 -2.3154,-0.47457 -3,-1.44c-5.17,-6.88 -10.49,-13.67 -15.49,-20.67c-1.30557,-1.83366 -1.50896,-4.2328 -0.5307,-6.26007c0.97825,-2.02728 2.98289,-3.36093 5.2307,-3.47992c2.71,-0.16 5.42,-0.16 8.13,-0.16h7.55h4.07v-2.75c-0.25972,-4.57145 2.79523,-8.67141 7.25,-9.73c0.18122,-0.07391 0.35529,-0.16428 0.52,-0.27h41.86c0.88768,0.30331 1.75597,0.66065 2.6,1.07z" fill="#ffffff"/></g></g></svg>